<svg width="59" height="62" viewBox="0 0 59 62" fill="none" xmlns="http://www.w3.org/2000/svg">
<path d="M33.1905 16.2381H20.6429C19.8598 16.2381 19.1089 16.5492 18.5552 17.1028C18.0015 17.6565 17.6905 18.4075 17.6905 19.1905V42.8095C17.6905 43.5925 18.0015 44.3435 18.5552 44.8972C19.1089 45.4509 19.8598 45.7619 20.6429 45.7619H38.3571C39.1402 45.7619 39.8911 45.4509 40.4448 44.8972C40.9985 44.3435 41.3095 43.5925 41.3095 42.8095V24.3571L33.1905 16.2381Z" stroke="#4361EE" stroke-width="2.95238" stroke-linecap="round" stroke-linejoin="round"/>
<path d="M32.4524 16.2381V25.0952H41.3095" stroke="#4361EE" stroke-width="2.95238" stroke-linecap="round" stroke-linejoin="round"/>
<path d="M35.4048 32.4762H23.5952" stroke="#4361EE" stroke-width="2.95238" stroke-linecap="round" stroke-linejoin="round"/>
<path d="M35.4048 38.381H23.5952" stroke="#4361EE" stroke-width="2.95238" stroke-linecap="round" stroke-linejoin="round"/>
<path d="M26.5476 26.5714H23.5952" stroke="#4361EE" stroke-width="2.95238" stroke-linecap="round" stroke-linejoin="round"/>
<rect x="0.31" y="0.31" width="58.38" height="61.38" rx="3.69" stroke="#C3C3C3" stroke-width="0.62"/>
</svg>
