<svg width="64" height="64" viewBox="0 0 64 64" fill="none" xmlns="http://www.w3.org/2000/svg">
<path d="M44.8 22.4H19.2C17.4327 22.4 16 23.8327 16 25.6V38.4C16 40.1673 17.4327 41.6 19.2 41.6H44.8C46.5673 41.6 48 40.1673 48 38.4V25.6C48 23.8327 46.5673 22.4 44.8 22.4Z" stroke="#4361EE" stroke-width="3.2" stroke-linecap="round" stroke-linejoin="round"/>
<path d="M32 35.2C33.7673 35.2 35.2 33.7673 35.2 32C35.2 30.2327 33.7673 28.8 32 28.8C30.2327 28.8 28.8 30.2327 28.8 32C28.8 33.7673 30.2327 35.2 32 35.2Z" stroke="#4361EE" stroke-width="3.2" stroke-linecap="round" stroke-linejoin="round"/>
<path d="M22.4 32H22.416M41.6 32H41.616" stroke="#4361EE" stroke-width="3.2" stroke-linecap="round" stroke-linejoin="round"/>
<rect x="0.32" y="0.32" width="63.36" height="63.36" rx="3.68" stroke="#C3C3C3" stroke-width="0.64"/>
</svg>
