<svg width="62" height="62" viewBox="0 0 62 62" fill="none" xmlns="http://www.w3.org/2000/svg">
<path d="M19.0257 38.8405C16.4977 40.966 15.655 47.275 15.655 47.275C15.655 47.275 21.9582 46.4316 24.0818 43.9012C25.2784 42.4842 25.2615 40.3081 23.9301 38.9923C23.275 38.3664 22.4121 38.0048 21.5069 37.9768C20.6018 37.9488 19.7182 38.2563 19.0257 38.8405V38.8405Z" stroke="#4361EE" stroke-width="3.1" stroke-linecap="round" stroke-linejoin="round"/>
<path d="M30.845 34.875L26.195 30.2251C27.0198 28.0853 28.0584 26.0341 29.295 24.1027C31.101 21.2151 33.6158 18.8376 36.6002 17.1962C39.5845 15.5549 42.9391 14.7043 46.345 14.7254C46.345 18.9413 45.136 26.3502 37.045 31.7751C35.0872 33.0131 33.0101 34.0516 30.845 34.875V34.875Z" stroke="#4361EE" stroke-width="3.1" stroke-linecap="round" stroke-linejoin="round"/>
<path d="M26.195 31.465H18.445C18.445 31.465 19.2975 26.2234 21.545 24.5454C24.056 22.677 29.295 24.5454 29.295 24.5454" stroke="#4361EE" stroke-width="3.1" stroke-linecap="round" stroke-linejoin="round"/>
<path d="M30.845 36.115V43.865C30.845 43.865 36.0866 43.0125 37.7646 40.765C39.6329 38.254 37.7646 33.015 37.7646 33.015" stroke="#4361EE" stroke-width="3.1" stroke-linecap="round" stroke-linejoin="round"/>
<rect x="0.31" y="0.31" width="61.38" height="61.38" rx="3.69" stroke="#C3C3C3" stroke-width="0.62"/>
</svg>
