<svg width="64" height="64" viewBox="0 0 64 64" fill="none" xmlns="http://www.w3.org/2000/svg">
<path d="M17.6 41.6001V32.0001C17.6 28.181 19.1171 24.5183 21.8177 21.8178C24.5182 19.1172 28.1809 17.6001 32 17.6001C35.8191 17.6001 39.4818 19.1172 42.1823 21.8178C44.8829 24.5183 46.4 28.181 46.4 32.0001V41.6001" stroke="#F72585" stroke-width="3.2" stroke-linecap="round" stroke-linejoin="round"/>
<path d="M46.4 43.2C46.4 44.0486 46.0629 44.8626 45.4628 45.4627C44.8627 46.0628 44.0487 46.3999 43.2 46.3999H41.6C40.7513 46.3999 39.9374 46.0628 39.3373 45.4627C38.7372 44.8626 38.4 44.0486 38.4 43.2V38.4C38.4 37.5513 38.7372 36.7373 39.3373 36.1372C39.9374 35.5371 40.7513 35.2 41.6 35.2H46.4V43.2ZM17.6 43.2C17.6 44.0486 17.9372 44.8626 18.5373 45.4627C19.1374 46.0628 19.9513 46.3999 20.8 46.3999H22.4C23.2487 46.3999 24.0627 46.0628 24.6628 45.4627C25.2629 44.8626 25.6 44.0486 25.6 43.2V38.4C25.6 37.5513 25.2629 36.7373 24.6628 36.1372C24.0627 35.5371 23.2487 35.2 22.4 35.2H17.6V43.2Z" stroke="#F72585" stroke-width="3.2" stroke-linecap="round" stroke-linejoin="round"/>
<rect x="0.5" y="0.5" width="63" height="63" rx="3.5" stroke="#C3C3C3"/>
</svg>
