<svg width="64" height="64" viewBox="0 0 64 64" fill="none" xmlns="http://www.w3.org/2000/svg">
<path d="M36.8 16H27.2C26.3163 16 25.6 16.7163 25.6 17.6V20.8C25.6 21.6837 26.3163 22.4 27.2 22.4H36.8C37.6836 22.4 38.4 21.6837 38.4 20.8V17.6C38.4 16.7163 37.6836 16 36.8 16Z" stroke="#F72585" stroke-width="3.2" stroke-linecap="round" stroke-linejoin="round"/>
<path d="M29.472 32.9759C29.784 32.6638 30.1544 32.4163 30.5621 32.2475C30.9698 32.0786 31.4067 31.9917 31.848 31.9917C32.2892 31.9917 32.7262 32.0786 33.1339 32.2475C33.5415 32.4163 33.912 32.6638 34.224 32.9759C34.536 33.2879 34.7835 33.6583 34.9524 34.066C35.1212 34.4737 35.2082 34.9106 35.2082 35.3519C35.2082 35.7931 35.1212 36.2301 34.9524 36.6378C34.7835 37.0454 34.536 37.4158 34.224 37.7279L25.52 46.3999L19.2 47.9999L20.784 41.6799L29.472 32.9759Z" stroke="#F72585" stroke-width="3.2" stroke-linecap="round" stroke-linejoin="round"/>
<path d="M38.4 19.2H41.6C42.4487 19.2 43.2626 19.5371 43.8627 20.1372C44.4628 20.7373 44.8 21.5513 44.8 22.4V44.8C44.8 45.6486 44.4628 46.4626 43.8627 47.0627C43.2626 47.6628 42.4487 48 41.6 48H32.8" stroke="#F72585" stroke-width="3.2" stroke-linecap="round" stroke-linejoin="round"/>
<path d="M19.2 34.4V22.4C19.2 21.5513 19.5371 20.7373 20.1372 20.1372C20.7374 19.5371 21.5513 19.2 22.4 19.2H25.6" stroke="#F72585" stroke-width="3.2" stroke-linecap="round" stroke-linejoin="round"/>
<rect x="0.5" y="0.5" width="63" height="63" rx="3.5" stroke="#C3C3C3"/>
</svg>
