<svg width="267" height="60" viewBox="0 0 267 60" fill="none" xmlns="http://www.w3.org/2000/svg">
<path d="M20.8799 46.3008L12.9046 32.5055C12.1872 31.264 12.1872 29.736 12.9046 28.4945L20.8799 14.6992C21.5973 13.4578 22.9238 12.6943 24.3587 12.6943H38.4866L44.6699 2H18.1755C16.7405 2 15.4141 2.76458 14.6966 4.00497L0.538092 28.4956C-0.179364 29.7371 -0.179364 31.2651 0.538092 32.5066L14.6966 56.995C15.4141 58.2365 16.7405 59 18.1755 59H46.4925C47.9274 59 49.2539 58.2354 49.9714 56.995L72 18.8929H60.7945C60.0771 18.8929 59.4144 19.2747 59.0551 19.896L43.7881 46.3019C43.0706 47.5433 41.7442 48.3068 40.3093 48.3068H24.3576C22.9227 48.3068 21.5962 47.5422 20.8788 46.3019L20.8799 46.3008Z" fill="#F72585"/>
<path d="M48.978 5.00497L27 42.978L38.1337 43.0885C38.8585 43.0961 39.5317 42.7122 39.8947 42.0854L55.1666 15.6992C55.8848 14.4578 57.2126 13.6943 58.649 13.6943H74.6171C76.0535 13.6943 77.3814 14.4588 78.0996 15.6992L86.0831 29.4945C86.8013 30.736 86.8013 32.264 86.0831 33.5055L78.0996 47.3008C77.3814 48.5422 76.0535 49.3057 74.6171 49.3057H60.4736L54.2839 60H80.8057C82.2421 60 83.57 59.2354 84.2882 57.995L98.4614 33.5066C99.1796 32.2651 99.1796 30.7371 98.4614 29.4956L84.2882 5.00497C83.57 3.76349 82.2421 3 80.8057 3H52.4593C51.0229 3 49.6951 3.76458 48.9769 5.00497H48.978Z" fill="#4361EE"/>
<path d="M124.544 9.77716L119.46 10.0795C119.374 9.65879 119.187 9.27896 118.9 8.93786C118.613 8.59676 118.237 8.32453 117.772 8.11793C117.307 7.91241 116.753 7.80911 116.111 7.80911C115.251 7.80911 114.525 7.98343 113.934 8.33206C113.344 8.68069 113.048 9.14553 113.048 9.72551C113.048 10.1882 113.239 10.5788 113.622 10.8984C114.004 11.2179 114.66 11.474 115.59 11.6677L119.214 12.3736C121.16 12.7599 122.611 13.3829 123.566 14.2394C124.522 15.097 125 16.2236 125 17.6192C125 18.8889 124.615 20.0026 123.847 20.9613C123.078 21.9201 122.026 22.6657 120.693 23.1994C119.359 23.7331 117.823 24 116.085 24C113.435 24 111.325 23.4641 109.757 22.3924C108.189 21.3207 107.269 19.8595 107 18.0109L112.461 17.7333C112.625 18.5155 113.026 19.1095 113.66 19.5173C114.293 19.9251 115.106 20.1285 116.097 20.1285C117.088 20.1285 117.854 19.9456 118.449 19.5797C119.044 19.2139 119.347 18.7415 119.356 18.1615C119.347 17.6741 119.135 17.2727 118.718 16.9574C118.3 16.6422 117.658 16.4011 116.789 16.2322L113.323 15.564C111.367 15.1852 109.914 14.5299 108.963 13.597C108.011 12.6641 107.536 11.474 107.536 10.0279C107.536 8.78399 107.885 7.71227 108.585 6.81272C109.284 5.91317 110.271 5.22021 111.543 4.73169C112.815 4.24426 114.308 4 116.021 4C118.55 4 120.541 4.51649 121.996 5.55055C123.452 6.5846 124.3 7.99311 124.544 9.775V9.77716Z" fill="#2D2D2A"/>
<path d="M130.953 32C130.258 32 129.608 31.9465 129.004 31.8407C128.398 31.7338 127.899 31.5996 127.505 31.4382L128.74 27.3725C129.383 27.5689 129.964 27.6747 130.484 27.6922C131.003 27.7096 131.454 27.5896 131.836 27.3344C132.218 27.0791 132.529 26.6439 132.769 26.0308L133.091 25.1995L126 5H131.765L135.858 19.4201H136.065L140.196 5H146L138.317 26.7584C137.948 27.8154 137.448 28.7372 136.818 29.5259C136.188 30.3146 135.392 30.9233 134.431 31.3542C133.47 31.784 132.311 32 130.956 32H130.953Z" fill="#2D2D2A"/>
<path d="M165.544 9.77716L160.46 10.0795C160.374 9.65879 160.187 9.27896 159.9 8.93786C159.613 8.59784 159.237 8.32453 158.772 8.11793C158.307 7.91241 157.753 7.80911 157.111 7.80911C156.251 7.80911 155.525 7.98343 154.934 8.33206C154.344 8.68069 154.048 9.14553 154.048 9.72551C154.048 10.1882 154.239 10.5788 154.622 10.8984C155.004 11.2179 155.66 11.474 156.59 11.6677L160.214 12.3736C162.16 12.7599 163.611 13.3829 164.566 14.2394C165.522 15.097 166 16.2236 166 17.6192C166 18.8889 165.615 20.0026 164.847 20.9613C164.078 21.9201 163.026 22.6657 161.693 23.1994C160.359 23.7331 158.823 24 157.085 24C154.435 24 152.325 23.4641 150.757 22.3924C149.189 21.3207 148.269 19.8595 148 18.0109L153.461 17.7333C153.625 18.5155 154.026 19.1095 154.66 19.5173C155.293 19.9251 156.106 20.1285 157.097 20.1285C158.088 20.1285 158.854 19.9456 159.449 19.5797C160.044 19.2139 160.347 18.7415 160.356 18.1615C160.347 17.6741 160.135 17.2727 159.718 16.9574C159.3 16.6422 158.658 16.4011 157.789 16.2322L154.323 15.564C152.367 15.1852 150.914 14.5299 149.963 13.597C149.011 12.6641 148.536 11.474 148.536 10.0279C148.536 8.78399 148.885 7.71227 149.585 6.81272C150.284 5.91317 151.271 5.22021 152.543 4.73169C153.815 4.24426 155.308 4 157.021 4C159.55 4 161.541 4.51649 162.996 5.55055C164.452 6.5846 165.3 7.99311 165.544 9.775V9.77716Z" fill="#2D2D2A"/>
<path d="M179.649 4.77821V8.93268H168V4.77821H179.649ZM170.643 0H176.008V18.5921C176.008 19.1029 176.083 19.4995 176.235 19.7798C176.386 20.0612 176.598 20.2584 176.871 20.3702C177.144 20.4832 177.461 20.5386 177.822 20.5386C178.073 20.5386 178.326 20.5154 178.577 20.4677C178.829 20.4201 179.022 20.3835 179.156 20.357L180 24.4727C179.731 24.5591 179.353 24.661 178.866 24.7773C178.38 24.8936 177.787 24.9657 177.091 24.9911C175.798 25.0432 174.667 24.8659 173.698 24.4594C172.728 24.0528 171.974 23.4202 171.437 22.5638C170.899 21.7074 170.635 20.6251 170.643 19.3178V0Z" fill="#2D2D2A"/>
<path d="M191.869 23.9968C189.822 23.9968 188.063 23.5912 186.591 22.78C185.119 21.9688 183.985 20.8176 183.191 19.3254C182.397 17.8332 182 16.0667 182 14.0237C182 11.9806 182.397 10.2829 183.191 8.77891C183.986 7.27488 185.106 6.10221 186.552 5.26089C187.999 4.42066 189.697 4 191.649 4C192.962 4 194.186 4.20441 195.321 4.61108C196.456 5.01883 197.449 5.62991 198.299 6.4454C199.149 7.26089 199.812 8.28402 200.287 9.51587C200.762 10.7477 201 12.1872 201 13.8343V15.3093H184.201V11.9806H195.807C195.807 11.2071 195.634 10.5229 195.289 9.92577C194.943 9.32867 194.466 8.86068 193.857 8.51963C193.248 8.17967 192.542 8.00861 191.74 8.00861C190.937 8.00861 190.162 8.1958 189.518 8.5702C188.875 8.94459 188.372 9.44486 188.01 10.071C187.647 10.6971 187.462 11.3932 187.453 12.1582V15.3233C187.453 16.2819 187.636 17.1092 188.003 17.8074C188.37 18.5056 188.891 19.0425 189.564 19.4212C190.237 19.7999 191.036 19.9882 191.96 19.9882C192.573 19.9882 193.133 19.9043 193.644 19.7364C194.154 19.5686 194.589 19.3158 194.953 18.9801C195.315 18.6444 195.591 18.2324 195.781 17.745L200.884 18.0732C200.625 19.2663 200.096 20.3066 199.297 21.1942C198.498 22.0807 197.471 22.7703 196.215 23.262C194.958 23.7536 193.509 24 191.869 24V23.9968Z" fill="#2D2D2A"/>
<path d="M205 24V4.25773H210.093V7.74095H210.319C210.721 6.5839 211.39 5.67142 212.326 5.00351C213.263 4.3356 214.384 4.0011 215.689 4.0011C216.993 4.0011 218.135 4.33779 219.063 5.01009C219.991 5.68239 220.609 6.59267 220.919 7.74095H221.12C221.513 6.61022 222.226 5.70322 223.259 5.02215C224.292 4.34108 225.514 4 226.928 4C228.727 4 230.188 4.58456 231.313 5.75477C232.438 6.92389 233 8.57995 233 10.723V24H227.668V11.8021C227.668 10.7054 227.383 9.88287 226.815 9.3345C226.246 8.78614 225.536 8.51195 224.683 8.51195C223.713 8.51195 222.956 8.82672 222.412 9.45624C221.868 10.0858 221.596 10.9149 221.596 11.9436V24H216.415V11.6859C216.415 10.7175 216.146 9.94648 215.606 9.37289C215.067 8.7993 214.358 8.51195 213.48 8.51195C212.886 8.51195 212.353 8.6644 211.881 8.96819C211.409 9.27199 211.034 9.69642 210.758 10.2404C210.482 10.7844 210.344 11.4205 210.344 12.1487V23.9989H205V24Z" fill="#2D2D2A"/>
<path d="M124.544 43.7772L119.46 44.0795C119.374 43.6588 119.187 43.279 118.9 42.9379C118.613 42.5968 118.237 42.3245 117.772 42.1179C117.307 41.9124 116.753 41.8091 116.111 41.8091C115.251 41.8091 114.525 41.9834 113.934 42.3321C113.344 42.6807 113.048 43.1455 113.048 43.7255C113.048 44.1882 113.239 44.5788 113.622 44.8984C114.004 45.2179 114.66 45.474 115.59 45.6677L119.214 46.3736C121.16 46.7599 122.611 47.3829 123.566 48.2394C124.522 49.097 125 50.2236 125 51.6192C125 52.8889 124.615 54.0026 123.847 54.9613C123.078 55.9201 122.026 56.6657 120.693 57.1994C119.359 57.7331 117.823 58 116.085 58C113.435 58 111.325 57.4641 109.757 56.3924C108.189 55.3207 107.269 53.8595 107 52.0109L112.461 51.7333C112.625 52.5155 113.026 53.1095 113.66 53.5173C114.293 53.9251 115.106 54.1285 116.097 54.1285C117.088 54.1285 117.854 53.9456 118.449 53.5797C119.044 53.2139 119.347 52.7415 119.356 52.1615C119.347 51.6741 119.135 51.2727 118.718 50.9574C118.3 50.6422 117.658 50.4011 116.789 50.2322L113.323 49.564C111.367 49.1852 109.914 48.5299 108.963 47.597C108.011 46.6641 107.536 45.474 107.536 44.0279C107.536 42.784 107.885 41.7123 108.585 40.8127C109.284 39.9132 110.271 39.2202 111.543 38.7317C112.815 38.2443 114.308 38 116.021 38C118.55 38 120.541 38.5165 121.996 39.5505C123.452 40.5846 124.3 41.9931 124.544 43.775V43.7772Z" fill="#2D2D2A"/>
<path d="M136.5 58C134.547 58 132.862 57.5814 131.442 56.7454C130.023 55.9093 128.927 54.7407 128.156 53.2397C127.385 51.7386 127 49.9966 127 48.0124C127 46.0282 127.385 44.2614 128.156 42.7603C128.927 41.2593 130.022 40.0918 131.442 39.2546C132.862 38.4186 134.547 38 136.5 38C138.453 38 140.138 38.4186 141.558 39.2546C142.977 40.0918 144.073 41.2593 144.844 42.7603C145.615 44.2614 146 46.0121 146 48.0124C146 50.0127 145.615 51.7386 144.844 53.2397C144.073 54.7407 142.978 55.9093 141.558 56.7454C140.138 57.5825 138.451 58 136.5 58ZM136.525 53.839C137.412 53.839 138.153 53.5851 138.748 53.0761C139.344 52.5672 139.794 51.8721 140.099 50.9886C140.405 50.1063 140.558 49.1013 140.558 47.9747C140.558 46.8481 140.405 45.8431 140.099 44.9608C139.794 44.0784 139.344 43.3801 138.748 42.8679C138.153 42.3557 137.412 42.0986 136.525 42.0986C135.637 42.0986 134.877 42.3547 134.269 42.8679C133.661 43.3812 133.205 44.0784 132.899 44.9608C132.594 45.8431 132.441 46.8481 132.441 47.9747C132.441 49.1013 132.593 50.1063 132.899 50.9886C133.205 51.871 133.662 52.5672 134.269 53.0761C134.876 53.5851 135.628 53.839 136.525 53.839Z" fill="#2D2D2A"/>
<path d="M155 31V57H150V31H155Z" fill="#2D2D2A"/>
<path d="M172.566 49.3364V38H178V57.7433H172.783V54.1568H172.578C172.136 55.314 171.403 56.244 170.377 56.946C169.352 57.649 168.105 58 166.633 58C165.324 58 164.171 57.7006 163.176 57.1006C162.181 56.5007 161.405 55.6485 160.848 54.5429C160.291 53.4373 160.008 52.1135 160 50.5714V38.0011H165.434V49.5953C165.442 50.7612 165.753 51.6825 166.365 52.3592C166.978 53.0359 167.798 53.3748 168.827 53.3748C169.483 53.3748 170.094 53.2224 170.665 52.9186C171.234 52.6147 171.696 52.1629 172.049 51.5629C172.402 50.963 172.574 50.2215 172.566 49.3397V49.3364Z" fill="#2D2D2A"/>
<path d="M192.648 37.7791V41.9334H181V37.7791H192.648ZM183.644 33.0011H189.008V51.5924C189.008 52.1031 189.083 52.4997 189.235 52.78C189.386 53.0614 189.598 53.2586 189.871 53.3705C190.144 53.4834 190.461 53.5388 190.822 53.5388C191.073 53.5388 191.326 53.5156 191.577 53.4679C191.829 53.4203 192.022 53.3837 192.157 53.3572L193 57.4727C192.731 57.5591 192.353 57.661 191.866 57.7773C191.38 57.8936 190.788 57.9657 190.091 57.9911C188.799 58.0432 187.667 57.866 186.698 57.4594C185.729 57.0528 184.975 56.4203 184.437 55.5639C183.9 54.7076 183.636 53.6252 183.644 52.318V33V33.0011Z" fill="#2D2D2A"/>
<path d="M199 35.5733C198.174 35.5733 197.467 35.2996 196.881 34.7522C196.294 34.2048 196 33.547 196 32.78C196 32.013 196.294 31.3685 196.881 30.8211C197.467 30.2737 198.174 30 199 30C199.826 30 200.533 30.2737 201.119 30.8211C201.706 31.3685 202 32.0218 202 32.78C202 33.5382 201.706 34.2048 201.119 34.7522C200.533 35.2996 199.826 35.5733 199 35.5733ZM196.208 58V38.1337H201.765V58H196.208Z" fill="#2D2D2A"/>
<path d="M214.5 58C212.547 58 210.862 57.5814 209.442 56.7454C208.023 55.9093 206.927 54.7407 206.156 53.2397C205.385 51.7386 205 49.9966 205 48.0124C205 46.0282 205.385 44.2614 206.156 42.7603C206.927 41.2593 208.022 40.0918 209.442 39.2546C210.862 38.4186 212.549 38 214.5 38C216.451 38 218.138 38.4186 219.558 39.2546C220.977 40.0918 222.073 41.2593 222.844 42.7603C223.615 44.2614 224 46.0121 224 48.0124C224 50.0127 223.615 51.7386 222.844 53.2397C222.073 54.7407 220.978 55.9093 219.558 56.7454C218.138 57.5825 216.451 58 214.5 58ZM214.525 53.839C215.412 53.839 216.153 53.5851 216.748 53.0761C217.344 52.5672 217.794 51.8721 218.099 50.9886C218.405 50.1063 218.558 49.1013 218.558 47.9747C218.558 46.8481 218.405 45.8431 218.099 44.9608C217.794 44.0784 217.344 43.3801 216.748 42.8679C216.153 42.3557 215.412 42.0986 214.525 42.0986C213.637 42.0986 212.877 42.3547 212.269 42.8679C211.661 43.3812 211.205 44.0784 210.899 44.9608C210.594 45.8431 210.441 46.8481 210.441 47.9747C210.441 49.1013 210.593 50.1063 210.899 50.9886C211.205 51.871 211.662 52.5672 212.269 53.0761C212.876 53.5851 213.628 53.839 214.525 53.839Z" fill="#2D2D2A"/>
<path d="M233.415 46.5857V58H228V38.2566H233.161V41.7401H233.39C233.822 40.5917 234.546 39.6814 235.564 39.009C236.581 38.3367 237.814 38 239.263 38C240.619 38 241.801 38.3005 242.81 38.8994C243.819 39.4993 244.602 40.3537 245.162 41.4637C245.721 42.5736 246 43.8953 246 45.4286V57.9989H240.585V46.4047C240.594 45.1961 240.288 44.2517 239.67 43.5706C239.051 42.8895 238.199 42.5484 237.114 42.5484C236.385 42.5484 235.743 42.7074 235.189 43.0244C234.633 43.3414 234.201 43.802 233.892 44.4064C233.583 45.0107 233.424 45.7368 233.416 46.5846L233.415 46.5857Z" fill="#2D2D2A"/>
<path d="M266.544 43.7772L261.46 44.0795C261.374 43.6588 261.187 43.279 260.9 42.9379C260.613 42.5978 260.237 42.3245 259.772 42.1179C259.307 41.9124 258.753 41.8091 258.111 41.8091C257.251 41.8091 256.525 41.9834 255.934 42.3321C255.344 42.6807 255.048 43.1455 255.048 43.7255C255.048 44.1882 255.239 44.5788 255.622 44.8984C256.004 45.2179 256.66 45.474 257.59 45.6677L261.214 46.3736C263.16 46.7599 264.611 47.3829 265.566 48.2394C266.522 49.097 267 50.2236 267 51.6192C267 52.8889 266.615 54.0026 265.847 54.9613C265.078 55.9201 264.026 56.6657 262.693 57.1994C261.359 57.7331 259.823 58 258.085 58C255.435 58 253.325 57.4641 251.757 56.3924C250.189 55.3207 249.269 53.8595 249 52.0109L254.461 51.7333C254.625 52.5155 255.026 53.1095 255.659 53.5173C256.293 53.9251 257.106 54.1285 258.097 54.1285C259.088 54.1285 259.854 53.9456 260.449 53.5797C261.044 53.2139 261.347 52.7415 261.356 52.1615C261.347 51.6741 261.135 51.2727 260.718 50.9574C260.3 50.6422 259.658 50.4011 258.789 50.2322L255.323 49.564C253.367 49.1852 251.914 48.5299 250.963 47.597C250.011 46.6641 249.536 45.474 249.536 44.0279C249.536 42.784 249.885 41.7123 250.585 40.8127C251.284 39.9132 252.271 39.2202 253.543 38.7317C254.815 38.2443 256.308 38 258.021 38C260.55 38 262.541 38.5165 263.996 39.5505C265.452 40.5846 266.3 41.9931 266.544 43.775V43.7772Z" fill="#2D2D2A"/>
</svg>
