<svg width="178" height="40" viewBox="0 0 178 40" fill="none" xmlns="http://www.w3.org/2000/svg">
<path d="M13.9199 30.8673L8.60308 21.6705C8.12478 20.8429 8.12478 19.8241 8.60308 18.9965L13.9199 9.79965C14.3982 8.972 15.2825 8.46301 16.2392 8.46301H25.6577L29.7799 1.3335H12.117C11.1604 1.3335 10.2761 1.84322 9.79775 2.67014L0.358728 18.9972C-0.119576 19.8249 -0.119576 20.8436 0.358728 21.6712L9.79775 37.9968C10.2761 38.8245 11.1604 39.3335 12.117 39.3335H30.995C31.9516 39.3335 32.8359 38.8238 33.3142 37.9968L48 12.5955H40.5297C40.0514 12.5955 39.6096 12.85 39.3701 13.2641L29.1921 30.8681C28.7138 31.6957 27.8294 32.2047 26.8728 32.2047H16.2384C15.2818 32.2047 14.3975 31.695 13.9192 30.8681L13.9199 30.8673Z" fill="#F72585"/>
<path d="M32.652 3.33665L18 28.652L25.4225 28.7256C25.9057 28.7307 26.3545 28.4748 26.5965 28.057L36.7777 10.4662C37.2565 9.6385 38.1417 9.12951 39.0993 9.12951H49.7448C50.7024 9.12951 51.5876 9.63923 52.0664 10.4662L57.3887 19.663C57.8675 20.4906 57.8675 21.5094 57.3887 22.337L52.0664 31.5338C51.5876 32.3615 50.7024 32.8705 49.7448 32.8705H40.3157L36.1893 40H53.8705C54.8281 40 55.7133 39.4903 56.1921 38.6634L65.6409 22.3377C66.1197 21.5101 66.1197 20.4914 65.6409 19.6637L56.1921 3.33665C55.7133 2.50899 54.8281 2 53.8705 2H34.9729C34.0153 2 33.1301 2.50972 32.6513 3.33665H32.652Z" fill="#4361EE"/>
<path d="M83.0294 6.51794L79.6403 6.71952C79.5825 6.43903 79.4579 6.18581 79.2666 5.95841C79.0753 5.73101 78.8247 5.54952 78.5148 5.41179C78.2049 5.27478 77.8357 5.20591 77.4071 5.20591C76.834 5.20591 76.3498 5.32212 75.9561 5.55454C75.5624 5.78696 75.3652 6.09686 75.3652 6.48351C75.3652 6.79197 75.4928 7.05237 75.7478 7.26542C76.0029 7.47847 76.4403 7.6492 77.0601 7.77832L79.4757 8.2489C80.7732 8.50643 81.7408 8.92177 82.3776 9.49278C83.0145 10.0645 83.3333 10.8156 83.3333 11.746C83.3333 12.5924 83.0768 13.3349 82.5645 13.974C82.0522 14.6132 81.3508 15.1103 80.4618 15.4661C79.5728 15.8219 78.5489 15.9998 77.3901 15.9998C75.6232 15.9998 74.2168 15.6426 73.1713 14.9281C72.1259 14.2136 71.5128 13.2395 71.3333 12.0071L74.9738 11.822C75.0835 12.3435 75.3504 12.7395 75.773 13.0114C76.1956 13.2832 76.7376 13.4188 77.3982 13.4188C78.0588 13.4188 78.5697 13.2969 78.9663 13.053C79.363 12.8091 79.5647 12.4942 79.5706 12.1075C79.5647 11.7826 79.4231 11.515 79.145 11.3048C78.867 11.0946 78.4384 10.9339 77.8594 10.8213L75.5484 10.3758C74.2449 10.1233 73.2759 9.68646 72.642 9.06452C72.0073 8.44258 71.6907 7.6492 71.6907 6.68508C71.6907 5.85583 71.9235 5.14135 72.3899 4.54165C72.8562 3.94195 73.5139 3.47998 74.3621 3.1543C75.2103 2.82934 76.2053 2.6665 77.3471 2.6665C79.0331 2.6665 80.361 3.01083 81.3307 3.7002C82.3013 4.38957 82.867 5.32858 83.0294 6.51651V6.51794Z" fill="white"/>
<path d="M87.3019 21.3335C86.8384 21.3335 86.405 21.2979 86.0023 21.2273C85.5989 21.156 85.2658 21.0666 85.003 20.959L85.8266 18.2485C86.2557 18.3794 86.643 18.45 86.9892 18.4616C87.3355 18.4732 87.6357 18.3933 87.8905 18.2231C88.1453 18.0529 88.3524 17.7627 88.5128 17.354L88.7273 16.7999L84 3.3335H87.8436L90.5722 12.9469H90.7099L93.4641 3.3335H97.3333L92.2114 17.8391C91.9654 18.5438 91.6323 19.1583 91.2121 19.6841C90.7919 20.2099 90.2611 20.6157 89.6205 20.903C88.9799 21.1895 88.2075 21.3335 87.304 21.3335H87.3019Z" fill="white"/>
<path d="M110.363 6.51794L106.974 6.71952C106.916 6.43903 106.791 6.18581 106.6 5.95841C106.409 5.73173 106.158 5.54952 105.848 5.41179C105.538 5.27478 105.169 5.20591 104.74 5.20591C104.167 5.20591 103.683 5.32212 103.289 5.55454C102.896 5.78696 102.699 6.09686 102.699 6.48351C102.699 6.79197 102.826 7.05237 103.081 7.26542C103.336 7.47847 103.774 7.6492 104.393 7.77832L106.809 8.2489C108.107 8.50643 109.074 8.92177 109.711 9.49278C110.348 10.0645 110.667 10.8156 110.667 11.746C110.667 12.5924 110.41 13.3349 109.898 13.974C109.386 14.6132 108.684 15.1103 107.795 15.4661C106.906 15.8219 105.882 15.9998 104.723 15.9998C102.957 15.9998 101.55 15.6426 100.505 14.9281C99.4593 14.2136 98.8461 13.2395 98.6667 12.0071L102.307 11.822C102.417 12.3435 102.684 12.7395 103.106 13.0114C103.529 13.2832 104.071 13.4188 104.732 13.4188C105.392 13.4188 105.903 13.2969 106.3 13.053C106.696 12.8091 106.898 12.4942 106.904 12.1075C106.898 11.7826 106.756 11.515 106.478 11.3048C106.2 11.0946 105.772 10.9339 105.193 10.8213L102.882 10.3758C101.578 10.1233 100.609 9.68646 99.9753 9.06452C99.3406 8.44258 99.0241 7.6492 99.0241 6.68508C99.0241 5.85583 99.2569 5.14135 99.7232 4.54165C100.19 3.94195 100.847 3.47998 101.695 3.1543C102.544 2.82934 103.539 2.6665 104.68 2.6665C106.366 2.6665 107.694 3.01083 108.664 3.7002C109.635 4.38957 110.2 5.32858 110.363 6.51651V6.51794Z" fill="white"/>
<path d="M119.766 3.18547V5.95512H112V3.18547H119.766ZM113.762 0H117.339V12.3948C117.339 12.7352 117.389 12.9996 117.49 13.1865C117.591 13.3741 117.732 13.5056 117.914 13.5802C118.096 13.6555 118.307 13.6924 118.548 13.6924C118.716 13.6924 118.884 13.6769 119.051 13.6452C119.219 13.6134 119.348 13.589 119.438 13.5713L120 16.3151C119.821 16.3727 119.569 16.4407 119.244 16.5182C118.92 16.5958 118.525 16.6438 118.061 16.6608C117.199 16.6955 116.445 16.5773 115.798 16.3062C115.152 16.0352 114.649 15.6135 114.291 15.0425C113.933 14.4716 113.757 13.75 113.762 12.8785V0Z" fill="white"/>
<path d="M127.913 15.9977C126.548 15.9977 125.375 15.7273 124.394 15.1865C123.413 14.6457 122.657 13.8783 122.128 12.8835C121.598 11.8887 121.333 10.711 121.333 9.34895C121.333 7.98693 121.598 6.85514 122.128 5.85245C122.657 4.84976 123.404 4.06797 124.368 3.5071C125.333 2.94694 126.465 2.6665 127.766 2.6665C128.641 2.6665 129.457 2.80278 130.214 3.07389C130.97 3.34572 131.633 3.75311 132.199 4.29677C132.766 4.84043 133.208 5.52252 133.525 6.34375C133.842 7.16498 134 8.12464 134 9.22272V10.206H122.801V7.98693H130.538C130.538 7.47124 130.423 7.01508 130.192 6.61702C129.962 6.21895 129.644 5.90696 129.238 5.67959C128.832 5.45295 128.361 5.33891 127.827 5.33891C127.292 5.33891 126.774 5.46371 126.346 5.7133C125.917 5.9629 125.582 6.29641 125.34 6.71384C125.098 7.13127 124.974 7.59532 124.969 8.10527V10.2154C124.969 10.8544 125.091 11.406 125.336 11.8715C125.58 12.3369 125.927 12.6948 126.376 12.9473C126.825 13.1998 127.357 13.3253 127.973 13.3253C128.382 13.3253 128.756 13.2693 129.096 13.1574C129.436 13.0456 129.726 12.877 129.968 12.6532C130.21 12.4295 130.394 12.1548 130.521 11.8299L133.923 12.0486C133.75 12.844 133.397 13.5376 132.865 14.1293C132.332 14.7203 131.647 15.18 130.81 15.5078C129.972 15.8356 129.006 15.9998 127.913 15.9998V15.9977Z" fill="white"/>
<path d="M136.667 15.9998V2.83833H140.062V5.16047H140.213C140.48 4.3891 140.926 3.78078 141.551 3.33551C142.175 2.89024 142.922 2.66724 143.792 2.66724C144.662 2.66724 145.423 2.8917 146.042 3.3399C146.66 3.7881 147.073 4.39495 147.279 5.16047H147.413C147.675 4.40665 148.151 3.80199 148.839 3.34794C149.528 2.89389 150.343 2.6665 151.286 2.6665C152.484 2.6665 153.459 3.05621 154.209 3.83635C154.959 4.61576 155.333 5.71981 155.333 7.14848V15.9998H151.779V7.86794C151.779 7.13678 151.589 6.58842 151.21 6.22284C150.831 5.85726 150.357 5.67447 149.788 5.67447C149.142 5.67447 148.637 5.88431 148.275 6.304C147.912 6.72368 147.731 7.27643 147.731 7.96226V15.9998H144.277V7.79043C144.277 7.14482 144.097 6.63082 143.737 6.24843C143.378 5.86604 142.905 5.67447 142.32 5.67447C141.924 5.67447 141.569 5.7761 141.254 5.97863C140.939 6.18116 140.689 6.46412 140.505 6.82677C140.321 7.18943 140.229 7.6135 140.229 8.09898V15.9991H136.667V15.9998Z" fill="white"/>
<path d="M83.0294 29.1849L79.6403 29.3865C79.5825 29.106 79.4579 28.8528 79.2666 28.6254C79.0753 28.398 78.8247 28.2165 78.5148 28.0788C78.2049 27.9418 77.8357 27.8729 77.4071 27.8729C76.834 27.8729 76.3498 27.9891 75.9561 28.2215C75.5624 28.454 75.3652 28.7639 75.3652 29.1505C75.3652 29.459 75.4928 29.7194 75.7478 29.9324C76.0029 30.1455 76.4403 30.3162 77.0601 30.4453L79.4757 30.9159C80.7732 31.1734 81.7408 31.5888 82.3776 32.1598C83.0145 32.7315 83.3333 33.4826 83.3333 34.413C83.3333 35.2594 83.0768 36.0019 82.5645 36.641C82.0522 37.2802 81.3508 37.7773 80.4618 38.1331C79.5728 38.4889 78.5489 38.6668 77.3901 38.6668C75.6232 38.6668 74.2168 38.3096 73.1713 37.5951C72.1259 36.8806 71.5128 35.9065 71.3333 34.6741L74.9738 34.489C75.0835 35.0105 75.3504 35.4065 75.773 35.6784C76.1956 35.9502 76.7376 36.0858 77.3982 36.0858C78.0588 36.0858 78.5697 35.9639 78.9663 35.72C79.363 35.4761 79.5647 35.1612 79.5706 34.7745C79.5647 34.4495 79.4231 34.182 79.145 33.9718C78.867 33.7616 78.4384 33.6009 77.8594 33.4883L75.5484 33.0428C74.2449 32.7903 73.2759 32.3535 72.642 31.7315C72.0073 31.1096 71.6907 30.3162 71.6907 29.3521C71.6907 28.5228 71.9235 27.8083 72.3899 27.2086C72.8562 26.6089 73.5139 26.147 74.3621 25.8213C75.2103 25.4963 76.2053 25.3335 77.3471 25.3335C79.0331 25.3335 80.361 25.6778 81.3307 26.3672C82.3013 27.0566 82.867 27.9956 83.0294 29.1835V29.1849Z" fill="white"/>
<path d="M91 38.6668C89.6983 38.6668 88.5746 38.3878 87.6282 37.8304C86.6818 37.273 85.9512 36.494 85.4373 35.4933C84.9233 34.4926 84.6667 33.3312 84.6667 32.0084C84.6667 30.6856 84.9233 29.5077 85.4373 28.507C85.9512 27.5063 86.6811 26.728 87.6282 26.1699C88.5746 25.6125 89.6983 25.3335 91 25.3335C92.3017 25.3335 93.4254 25.6125 94.3718 26.1699C95.3183 26.728 96.0488 27.5063 96.5628 28.507C97.0767 29.5077 97.3334 30.6749 97.3334 32.0084C97.3334 33.342 97.0767 34.4926 96.5628 35.4933C96.0488 36.494 95.319 37.273 94.3718 37.8304C93.4254 38.3885 92.301 38.6668 91 38.6668ZM91.0165 35.8928C91.6083 35.8928 92.1023 35.7236 92.499 35.3842C92.8957 35.0449 93.196 34.5815 93.3997 33.9926C93.6034 33.4044 93.7056 32.7344 93.7056 31.9833C93.7056 31.2322 93.6034 30.5622 93.3997 29.974C93.196 29.3858 92.8957 28.9202 92.499 28.5788C92.1023 28.2373 91.6083 28.0659 91.0165 28.0659C90.4246 28.0659 89.9178 28.2366 89.5125 28.5788C89.1072 28.9209 88.8034 29.3858 88.5996 29.974C88.3959 30.5622 88.2937 31.2322 88.2937 31.9833C88.2937 32.7344 88.3952 33.4044 88.5996 33.9926C88.8034 34.5808 89.1079 35.0449 89.5125 35.3842C89.9171 35.7236 90.4189 35.8928 91.0165 35.8928Z" fill="white"/>
<path d="M103.333 20.6665V37.9998H100V20.6665H103.333Z" fill="white"/>
<path d="M115.044 32.8911V25.3335H118.667V38.4957H115.189V36.1047H115.052C114.758 36.8761 114.269 37.4962 113.585 37.9642C112.901 38.4328 112.07 38.6668 111.089 38.6668C110.216 38.6668 109.447 38.4672 108.784 38.0672C108.121 37.6673 107.603 37.0991 107.232 36.3621C106.86 35.6251 106.672 34.7425 106.667 33.7144V25.3342H110.289V33.0637C110.295 33.8409 110.502 34.4551 110.91 34.9063C111.319 35.3574 111.865 35.5834 112.552 35.5834C112.989 35.5834 113.396 35.4817 113.777 35.2792C114.156 35.0767 114.464 34.7754 114.7 34.3754C114.935 33.9755 115.049 33.4812 115.044 32.8933V32.8911Z" fill="white"/>
<path d="M128.432 25.1861V27.9556H120.667V25.1861H128.432ZM122.43 22.0007H126.006V34.3949C126.006 34.7354 126.056 34.9998 126.157 35.1867C126.258 35.3742 126.399 35.5057 126.581 35.5803C126.763 35.6556 126.974 35.6926 127.215 35.6926C127.382 35.6926 127.551 35.677 127.718 35.6453C127.886 35.6135 128.015 35.5892 128.104 35.5714L128.667 38.3151C128.488 38.3727 128.235 38.4407 127.911 38.5182C127.586 38.5958 127.192 38.6438 126.728 38.6608C125.866 38.6955 125.112 38.5773 124.465 38.3063C123.819 38.0352 123.316 37.6135 122.958 37.0426C122.6 36.4717 122.424 35.7502 122.43 34.8787V22V22.0007Z" fill="white"/>
<path d="M132.667 23.7155C132.116 23.7155 131.645 23.5331 131.254 23.1681C130.863 22.8032 130.667 22.3647 130.667 21.8534C130.667 21.342 130.863 20.9123 131.254 20.5474C131.645 20.1825 132.116 20 132.667 20C133.217 20 133.689 20.1825 134.08 20.5474C134.471 20.9123 134.667 21.3479 134.667 21.8534C134.667 22.3588 134.471 22.8032 134.08 23.1681C133.689 23.5331 133.217 23.7155 132.667 23.7155ZM130.805 38.6667V25.4225H134.51V38.6667H130.805Z" fill="white"/>
<path d="M143 38.6668C141.698 38.6668 140.575 38.3878 139.628 37.8304C138.682 37.273 137.951 36.494 137.437 35.4933C136.923 34.4926 136.667 33.3312 136.667 32.0084C136.667 30.6856 136.923 29.5077 137.437 28.507C137.951 27.5063 138.681 26.728 139.628 26.1699C140.575 25.6125 141.699 25.3335 143 25.3335C144.301 25.3335 145.425 25.6125 146.372 26.1699C147.318 26.728 148.049 27.5063 148.563 28.507C149.077 29.5077 149.333 30.6749 149.333 32.0084C149.333 33.342 149.077 34.4926 148.563 35.4933C148.049 36.494 147.319 37.273 146.372 37.8304C145.425 38.3885 144.301 38.6668 143 38.6668ZM143.016 35.8928C143.608 35.8928 144.102 35.7236 144.499 35.3842C144.896 35.0449 145.196 34.5815 145.4 33.9926C145.603 33.4044 145.706 32.7344 145.706 31.9833C145.706 31.2322 145.603 30.5622 145.4 29.974C145.196 29.3858 144.896 28.9202 144.499 28.5788C144.102 28.2373 143.608 28.0659 143.016 28.0659C142.425 28.0659 141.918 28.2366 141.512 28.5788C141.107 28.9209 140.803 29.3858 140.6 29.974C140.396 30.5622 140.294 31.2322 140.294 31.9833C140.294 32.7344 140.395 33.4044 140.6 33.9926C140.803 34.5808 141.108 35.0449 141.512 35.3842C141.917 35.7236 142.419 35.8928 143.016 35.8928Z" fill="white"/>
<path d="M155.61 31.0573V38.6668H152V25.5046H155.441V27.8269H155.593C155.881 27.0613 156.364 26.4544 157.043 26.0062C157.721 25.558 158.542 25.3335 159.508 25.3335C160.412 25.3335 161.201 25.5338 161.873 25.9331C162.546 26.333 163.068 26.9026 163.441 27.6426C163.814 28.3826 164 29.2637 164 30.2859V38.6661H160.39V30.9366C160.396 30.1309 160.192 29.5013 159.78 29.0472C159.367 28.5932 158.799 28.3658 158.076 28.3658C157.59 28.3658 157.162 28.4718 156.792 28.6831C156.422 28.8944 156.134 29.2015 155.928 29.6044C155.722 30.0073 155.616 30.4913 155.611 31.0566L155.61 31.0573Z" fill="white"/>
<path d="M177.696 29.1849L174.307 29.3865C174.249 29.106 174.125 28.8528 173.933 28.6254C173.742 28.3987 173.491 28.2165 173.181 28.0788C172.872 27.9418 172.502 27.8729 172.074 27.8729C171.501 27.8729 171.016 27.9891 170.623 28.2215C170.229 28.454 170.032 28.7639 170.032 29.1505C170.032 29.459 170.159 29.7194 170.414 29.9324C170.67 30.1455 171.107 30.3162 171.727 30.4453L174.142 30.9159C175.44 31.1734 176.407 31.5888 177.044 32.1598C177.681 32.7315 178 33.4826 178 34.413C178 35.2594 177.743 36.0019 177.231 36.641C176.719 37.2802 176.017 37.7773 175.128 38.1331C174.239 38.4889 173.216 38.6668 172.057 38.6668C170.29 38.6668 168.883 38.3096 167.838 37.5951C166.793 36.8806 166.179 35.9065 166 34.6741L169.64 34.489C169.75 35.0105 170.017 35.4065 170.44 35.6784C170.862 35.9502 171.404 36.0858 172.065 36.0858C172.725 36.0858 173.236 35.9639 173.633 35.72C174.03 35.4761 174.231 35.1612 174.237 34.7745C174.231 34.4495 174.09 34.182 173.812 33.9718C173.534 33.7616 173.105 33.6009 172.526 33.4883L170.215 33.0428C168.912 32.7903 167.943 32.3535 167.309 31.7315C166.674 31.1096 166.357 30.3162 166.357 29.3521C166.357 28.5228 166.59 27.8083 167.057 27.2086C167.523 26.6089 168.181 26.147 169.029 25.8213C169.877 25.4963 170.872 25.3335 172.014 25.3335C173.7 25.3335 175.028 25.6778 175.997 26.3672C176.968 27.0566 177.534 27.9956 177.696 29.1835V29.1849Z" fill="white"/>
</svg>
