<svg width="59" height="62" viewBox="0 0 59 62" fill="none" xmlns="http://www.w3.org/2000/svg">
<path d="M20.6429 42.8095C19.8599 42.8095 19.1089 42.4985 18.5552 41.9448C18.0015 41.3911 17.6905 40.6402 17.6905 39.8571V25.0952C17.6905 24.3122 18.0015 23.5613 18.5552 23.0076C19.1089 22.4539 19.8599 22.1429 20.6429 22.1429H38.3572C39.1402 22.1429 39.8911 22.4539 40.4448 23.0076C40.9985 23.5613 41.3095 24.3122 41.3095 25.0952V39.8571C41.3095 40.6402 40.9985 41.3911 40.4448 41.9448C39.8911 42.4985 39.1402 42.8095 38.3572 42.8095" stroke="#4361EE" stroke-width="2.95238" stroke-linecap="round" stroke-linejoin="round"/>
<path d="M23.5952 39.8571V19.1905C23.5952 18.4075 23.9063 17.6565 24.46 17.1028C25.0137 16.5492 25.7646 16.2381 26.5476 16.2381H32.4524C33.2354 16.2381 33.9864 16.5492 34.54 17.1028C35.0937 17.6565 35.4048 18.4075 35.4048 19.1905V39.8571" stroke="#4361EE" stroke-width="2.95238" stroke-linecap="round" stroke-linejoin="round"/>
<path d="M26.5476 42.8095H32.4524" stroke="#4361EE" stroke-width="2.95238" stroke-linecap="round" stroke-linejoin="round"/>
<path d="M35.4048 45.7619C37.0353 45.7619 38.3572 44.4401 38.3572 42.8095C38.3572 41.179 37.0353 39.8571 35.4048 39.8571C33.7742 39.8571 32.4524 41.179 32.4524 42.8095C32.4524 44.4401 33.7742 45.7619 35.4048 45.7619Z" stroke="#4361EE" stroke-width="2.95238" stroke-linecap="round" stroke-linejoin="round"/>
<path d="M23.5952 45.7619C25.2258 45.7619 26.5476 44.4401 26.5476 42.8095C26.5476 41.179 25.2258 39.8571 23.5952 39.8571C21.9647 39.8571 20.6429 41.179 20.6429 42.8095C20.6429 44.4401 21.9647 45.7619 23.5952 45.7619Z" stroke="#4361EE" stroke-width="2.95238" stroke-linecap="round" stroke-linejoin="round"/>
<rect x="0.31" y="0.31" width="58.38" height="61.38" rx="3.69" stroke="#C3C3C3" stroke-width="0.62"/>
</svg>
