<svg width="64" height="64" viewBox="0 0 64 64" fill="none" xmlns="http://www.w3.org/2000/svg">
<path d="M48 25.6V16H38.4" stroke="#F72585" stroke-width="3.2" stroke-linecap="round" stroke-linejoin="round"/>
<path d="M38.4 25.6L48 16" stroke="#F72585" stroke-width="3.2" stroke-linecap="round" stroke-linejoin="round"/>
<path d="M47.999 39.9582V44.7754C48.0008 45.2226 47.909 45.6653 47.7295 46.0751C47.55 46.4848 47.2867 46.8526 46.9565 47.155C46.6263 47.4573 46.2365 47.6875 45.812 47.8307C45.3876 47.974 44.9378 48.0272 44.4915 47.987C39.5405 47.4501 34.7847 45.7616 30.6062 43.0573C26.7187 40.5919 23.4228 37.3025 20.9525 33.4227C18.2334 29.2336 16.5412 24.4641 16.0131 19.5007C15.9729 19.0567 16.0257 18.6091 16.1683 18.1866C16.3109 17.7641 16.5401 17.3758 16.8413 17.0465C17.1425 16.7172 17.5091 16.4541 17.9177 16.274C18.3264 16.0938 18.7681 16.0006 19.2149 16.0002H24.0417C24.8226 15.9925 25.5795 16.2684 26.1716 16.7766C26.7636 17.2847 27.1503 17.9904 27.2596 18.7621C27.4634 20.3037 27.8412 21.8174 28.3859 23.2743C28.6024 23.849 28.6492 24.4736 28.5209 25.0741C28.3926 25.6746 28.0945 26.2258 27.6619 26.6624L25.6185 28.7017C27.9089 32.7218 31.2441 36.0504 35.2722 38.3363L37.3156 36.297C37.753 35.8653 38.3053 35.5678 38.907 35.4397C39.5087 35.3116 40.1346 35.3584 40.7105 35.5744C42.1702 36.118 43.6869 36.4951 45.2316 36.6985C46.0132 36.8085 46.727 37.2014 47.2372 37.8024C47.7475 38.4034 48.0186 39.1706 47.999 39.9582Z" stroke="#F72585" stroke-width="3.2" stroke-linecap="round" stroke-linejoin="round"/>
<rect x="0.5" y="0.5" width="63" height="63" rx="3.5" stroke="#C3C3C3"/>
</svg>
