<svg width="64" height="64" viewBox="0 0 64 64" fill="none" xmlns="http://www.w3.org/2000/svg">
<path d="M24 28.8V48" stroke="#F72585" stroke-width="3.2" stroke-linecap="round" stroke-linejoin="round"/>
<path d="M36.9783 22.208L35.3646 28.8H44.7726C45.2736 28.8 45.7678 28.9157 46.2159 29.1378C46.6641 29.36 47.0539 29.6826 47.3545 30.08C47.6551 30.4774 47.8583 30.9388 47.9479 31.4276C48.0376 31.9163 48.0112 32.4191 47.8709 32.896L44.1109 45.696C43.9154 46.3607 43.5077 46.9446 42.9491 47.36C42.3904 47.7754 41.7109 48 41.0126 48H19.2274C18.3715 48 17.5506 47.6629 16.9453 47.0627C16.34 46.4626 16 45.6487 16 44.8V32C16 31.1513 16.34 30.3374 16.9453 29.7373C17.5506 29.1371 18.3715 28.8 19.2274 28.8H23.6813C24.2817 28.7997 24.8702 28.6333 25.3805 28.3196C25.8908 28.0058 26.3026 27.5571 26.5698 27.024L32.1372 16C32.8982 16.0093 33.6472 16.1891 34.3283 16.5258C35.0094 16.8624 35.6049 17.3474 36.0704 17.9443C36.536 18.5413 36.8594 19.2348 37.0166 19.9731C37.1738 20.7114 37.1607 21.4754 36.9783 22.208V22.208Z" stroke="#F72585" stroke-width="3.2" stroke-linecap="round" stroke-linejoin="round"/>
<rect x="0.5" y="0.5" width="63" height="63" rx="3.5" stroke="#C3C3C3"/>
</svg>
